<svg width="538" height="536" viewBox="0 0 538 536" fill="none" xmlns="http://www.w3.org/2000/svg">
<path d="M269 0L501.961 134V402L269 536L36.0392 402V134L269 0Z" fill="#CBD5E1"/>
<path d="M387 196L494.5 133L269.5 4.5L43 133L149.5 196L269.5 133L387 196Z" fill="#E2E8F0" stroke="#E2E8F0" stroke-width="7"/>
<path d="M151 340L43.5 403L268.5 531.5L495 403L388.5 340L268.5 403L151 340Z" fill="#E2E8F0" stroke="#E2E8F0" stroke-width="7"/>
<path d="M269 118L398.904 193V343L269 418L139.096 343V193L269 118Z" fill="#3CAF2C"/>
<g filter="url(#filter0_d_2_29)">
<path fill-rule="evenodd" clip-rule="evenodd" d="M169.331 198.582L268.904 141.094L369.076 198.929L269.504 256.417L169.331 198.582ZM159 215.712V331.453L259.249 389.332V273.59L159 215.712ZM279.249 273.885L378.808 216.404V331.453L279.249 388.933V273.885ZM268.904 118L398.808 193V343L268.904 418L139 343V193L268.904 118Z" fill="black"/>
</g>
<defs>
<filter id="filter0_d_2_29" x="135" y="118" width="267.808" height="308" filterUnits="userSpaceOnUse" color-interpolation-filters="sRGB">
<feFlood flood-opacity="0" result="BackgroundImageFix"/>
<feColorMatrix in="SourceAlpha" type="matrix" values="0 0 0 0 0 0 0 0 0 0 0 0 0 0 0 0 0 0 127 0" result="hardAlpha"/>
<feOffset dy="4"/>
<feGaussianBlur stdDeviation="2"/>
<feComposite in2="hardAlpha" operator="out"/>
<feColorMatrix type="matrix" values="0 0 0 0 0 0 0 0 0 0 0 0 0 0 0 0 0 0 0.25 0"/>
<feBlend mode="normal" in2="BackgroundImageFix" result="effect1_dropShadow_2_29"/>
<feBlend mode="normal" in="SourceGraphic" in2="effect1_dropShadow_2_29" result="shape"/>
</filter>
</defs>
</svg>
